{"title":"The Final Countdown 1980 1080p BluRay DTS x264-iLL","uid":6153849,"size":9369988644,"categoryP":"video","categoryS":"hd___movies","magnet":"?xt=urn:btih:4d2ba8afe68ebc5e73302f9eb4f7e1704c652b45&amp;dn=The+Final+Countdown+1980+1080p+BluRay+DTS+x264-iLL&amp;tr=udp%3A%2F%2Ftracker.openbittorrent.com%3A80&amp;tr=udp%3A%2F%2Fopen.demonii.com%3A1337&amp;tr=udp%3A%2F%2Ftracker.coppersurfer.tk%3A6969&amp;tr=udp%3A%2F%2Fexodus.desync.com%3A6969","seeders":1,"leechers":3,"uploader":"bobnjeff","files":1,"time":1296974128,"description":"\nRelease Group: iLL\nContainer: MKV\nResolution: 1080p\nSource Media: Blu Ray\nAudio Format: DTS\nAudio Channels: 5.1\nAudio Bitrate: 1510\n\n\nWhen an inexplicable phenomenon transports a modern nuclear warship back in time to the bombing of Pearl Harbor, the crew must decide between allowing the bloody attack to take place and preventing it, which could forever change the course of history. This thrilling science fiction blockbuster features a stellar cast, including Kirk Douglas, Martin Sheen, Charles Durning, Katherine Ross and James Farentino, as the crew and war era government officials who must decide the future of the world.\n\nCast\nCast overview, first billed only: \n  Kirk Douglas  ...  Capt. Matthew Yelland  \n  Martin Sheen  ...  Warren Lasky  \n  Katharine Ross  ...  Laurel Scott  \n  James Farentino  ...  Wing Commander Richard T. Owens / Richard Tideman  \n  Ron O\\'Neal  ...  Cmdr. Dan Thurman  \n  Charles Durning  ...  Sen. Samuel Chapman  \n  Victor Mohica  ...  Black Cloud  \n  James Coleman  ...  Lt. Perry (as James C. Lawrence)  \n  Soon-Tek Oh  ...  Simura (as Soon-Teck Oh)  \n  Joe Lowry  ...  Cmdr. Damon  \n  Alvin Ing  ...  Lt. Kajima  \n  Mark Thomas  ...  Marine Cpl. Kullman  \n  Harold Bergman  ...  Bellman  \n  Dan Fitzgerald  ...  Navy Doctor  \n  Lloyd Kaufman  ...  Lt. Cmdr. Kaufman  \n\n\nComplete name : The.Final.Countdown.1980.1080p.BluRay.DTS.x264-iLL.mkv\nFormat : Matroska\nFile size : 8.72 GB\nOverall bit rate : 12.2 Mbps\nEncoded date : UTC 2008-11-11 17:10:39\nWriting application : mkvmerge v2.2.0 (\\'Turn It On Again' built on Mar 4 2008 12:58:26\nWriting library : libebml v0.7.7 + libmatroska v0.8.1\n\nVideo\n\nID : 1\nFormat : AVC\nFormat/Info : Advanced Video Codec\nFormat profile : &lt;a class=&quot;__cf_email__&quot; href=&quot;/cdn-cgi/l/email-protection&quot; data-cfemail=&quot;1b53727c735b572f352a&quot;&gt;[email&amp;#160;protected]&lt;/a&gt;&lt;script cf-hash='f9e31' type=&quot;text/javascript&quot;&gt;\n/* &lt;![CDATA[ */!function(){try{var t=&quot;currentScript&quot;in document?document.currentScript:function(){for(var t=document.getElementsByTagName(&quot;script&quot;),e=t.length;e--;)if(t[e].getAttribute(&quot;cf-hash&quot;))return t[e]}();if(t&amp;&amp;t.previousSibling){var e,r,n,i,c=t.previousSibling,a=c.getAttribute(&quot;data-cfemail&quot;);if(a){for(e=&quot;&quot;,r=parseInt(a.substr(0,2),16),n=2;a.length-n;n+=2)i=parseInt(a.substr(n,2),16)^r,e+=String.fromCharCode(i);e=document.createTextNode(e),c.parentNode.replaceChild(e,c)}}}catch(u){}}();/* ]]&gt; */&lt;/script&gt;\nFormat settings, CABAC : Yes\nFormat settings, ReFrames : 4 frames\nCodec ID : V_MPEG4/ISO/AVC\nBit rate : 10.5 Mbps\nWidth : 1 920 pixels\nHeight : 816 pixels\nDisplay aspect ratio : 2.35:1\nFrame rate : 23.976 fps\nColor space : YUV\nChroma subsampling : 4:2:0\nBit depth : 8 bits\nScan type : Progressive\nBits/(Pixel*Frame) : 0.279\nStream size : 45.2 MiB (86%)\nLanguage : English\n\n\nAudio\n\nID : 2\nFormat : DTS\nFormat/Info : Digital Theater Systems\nCodec ID : A_DTS\nBit rate mode : Constant\nBit rate : 1 510 Kbps\nChannel(s) : 6 channels\nChannel positions : Front: L C R, Side: L R, LFE\nSampling rate : 48.0 KHz\nBit depth : 24 bits\nVideo delay : 7ms\nStream size : 6.50 MiB (12%)\nLanguage : English\n\n\n\n &lt;a href=&quot;\nhttp://www.imagebam.com/image/d8254a118338516&quot; rel=&quot;nofollow&quot; target=&quot;_NEW&quot;&gt;\nhttp://www.imagebam.com/image/d8254a118338516&lt;/a&gt;\n &lt;a href=&quot;\nhttp://www.imagebam.com/image/8a41c2118338531&quot; rel=&quot;nofollow&quot; target=&quot;_NEW&quot;&gt;\nhttp://www.imagebam.com/image/8a41c2118338531&lt;/a&gt;\n &lt;a href=&quot;\nhttp://www.imagebam.com/image/02987d118338545&quot; rel=&quot;nofollow&quot; target=&quot;_NEW&quot;&gt;\nhttp://www.imagebam.com/image/02987d118338545&lt;/a&gt;\n &lt;a href=&quot;\nhttp://www.imagebam.com/image/c21521118338559&quot; rel=&quot;nofollow&quot; target=&quot;_NEW&quot;&gt;\nhttp://www.imagebam.com/image/c21521118338559&lt;/a&gt;\n &lt;a href=&quot;\nhttp://www.imagebam.com/image/2afb30118338569&quot; rel=&quot;nofollow&quot; target=&quot;_NEW&quot;&gt;\nhttp://www.imagebam.com/image/2afb30118338569&lt;/a&gt;\n &lt;a href=&quot;\nhttp://www.imagebam.com/image/a1f095118338587&quot; rel=&quot;nofollow&quot; target=&quot;_NEW&quot;&gt;\nhttp://www.imagebam.com/image/a1f095118338587&lt;/a&gt;","torrent":{"xt":"urn:btih:4d2ba8afe68ebc5e73302f9eb4f7e1704c652b45","amp;dn":"The+Final+Countdown+1980+1080p+BluRay+DTS+x264-iLL","amp;tr":["udp%3A%2F%2Ftracker.openbittorrent.com%3A80","udp%3A%2F%2Fopen.demonii.com%3A1337","udp%3A%2F%2Ftracker.coppersurfer.tk%3A6969","udp%3A%2F%2Fexodus.desync.com%3A6969"],"infoHash":"4d2ba8afe68ebc5e73302f9eb4f7e1704c652b45","infoHashBuffer":{"type":"Buffer","data":[77,43,168,175,230,142,188,94,115,48,47,158,180,247,225,112,76,101,43,69]},"announce":[],"urlList":[]}}